<?xml version="1.0" encoding="utf-8"?>
<!-- Generator: Adobe Illustrator 26.2.1, SVG Export Plug-In . SVG Version: 6.00 Build 0)  -->
<svg version="1.1" id="Layer_1" xmlns="http://www.w3.org/2000/svg" xmlns:xlink="http://www.w3.org/1999/xlink" x="0px" y="0px"
	 viewBox="0 0 290.4 331.7" style="enable-background:new 0 0 290.4 331.7;" xml:space="preserve">
<style type="text/css">
	.st0{fill:url(#SVGID_1_);}
</style>
<linearGradient id="SVGID_1_" gradientUnits="userSpaceOnUse" x1="245.7077" y1="-8.1424" x2="73.9806" y2="289.2977">
	<stop  offset="0" style="stop-color:#FFFFFF"/>
	<stop  offset="0" style="stop-color:#2DBDAD"/>
	<stop  offset="0" style="stop-color:#2FB4B1"/>
	<stop  offset="1" style="stop-color:#269BBA"/>
</linearGradient>
<path class="st0" d="M220.5,52.7c5.3-6.9,11.1-14.3,15.2-22c1.3-2.4,2.6-8.4-2.3-7.2c-4.2,1-8,6.3-10.9,9.2
	c-8.2,8.4-15.6,19.6-25.1,26.4c-2.9,2.1-6.6,2.5-9.9,3.6c-9.3,3.1-19.2,5.3-28,9.8c-3.3,1.7-8.3,7.2-1.9,8.8
	c4.3,1.1,9.7-1.4,13.9-2.3c4-0.8,8-1.9,12-2.4c-7.4,13-17.7,25-26.6,37l-14,19c-5.4,7.2-11.2,14.4-15.9,22c-1.3,2.1-3.4,7,0.7,7.5
	c2.6,0.3,4.8-1.9,6.5-3.6c3.9-4.1,7.4-8.6,11-12.9c15-18,29.9-36.2,45.2-54c5.2-6.1,11.1-16.8,19-19.3c14.9-4.7,34.8-7,50-2.5
	c6.1,1.8,14.7,5.2,14.7,12.8c0,11.1-13.2,22.7-20.7,29.3c-7.3,6.4-14.7,12.5-23,17.5c-5.9,3.6-13.5,6.4-18.7,10.8
	c-3.2,2.8-5.1,6.8-7.4,10.4c-3.5,5.5-7.9,10.7-9.9,17c7.6-1.8,14.8-5.4,22-8.4c24.1-10.3,48.8-25.8,64-47.6c3.2-4.6,5.9-9.6,7.7-15
	c1.2-3.5,2.3-7.2,2.3-11c0-22.7-23.6-29-41.9-29c6.7-7.2,16.1-11.2,22.5-19c2.9-3.6,5.5-7.5,6.7-12c3.8-14.5-9.5-23.6-22.2-25.1
	c-28-3.2-54.3,5.2-79,17.8c-7.6,3.9-15.4,8.5-21.9,14c-2.2,1.8-5.5,6-1.7,8.2c2.5,1.5,5.5-0.5,7.7-1.6c5.9-3,11.8-6.3,18-8.8
	c19.2-7.8,40.2-13.5,61-13.5c6.4,0,18.1-0.2,22.6,5.3c3.7,4.4-2.6,9.7-5.6,12.4C246.9,42.8,232.7,49.4,220.5,52.7 M129.5,33.7
	c-8.7,15.3-23.6,28.6-36,41c-19.4,19.4-38.9,39-59,57.8c-7.6,7.2-15.1,16.7-24,22.1c-3.6,2.2-11.2,4.4-10.4,10
	c0.5,3.4,4.5,4.6,7.4,4.9c7.3,0.8,15.9-1.7,23-3.2c25.1-5.5,49.6-12.5,74-20.6c5.7-1.9,11.4-3.4,17-5.4c2-0.7,5.6-1.5,6.2-3.9
	c1.1-3.8-3.7-4.6-6.2-4.4c-8.4,0.6-16.8,2.2-25,3.6c-7.7,1.3-15.3,3-23,4.5c-12,2.3-24.4,3.9-36,7.6c20.7-16.8,40.5-34.8,60-52.9
	c12.5-11.6,25.5-23.1,36.6-36.1c8.8-10.2,24-29.5,6.4-39.6c-2.5-1.4-5.2-2.4-8-2.9c-24.2-4.6-49.5,14.6-66,29.7
	c-4.8,4.4-10,10-13.1,15.8c-1.1,2.1-2.4,5.4-0.3,7.4c1.9,1.8,4.5,0.5,6.4-0.7c4.3-2.7,8-6.5,12-9.6C87.8,45.8,108.1,34.2,129.5,33.7
	 M170.5,212.7c-7.1,9.6-16.1,19.3-19.8,31c-1.2,4-2.1,13.3,4.8,12.2c3.1-0.5,5.7-3.2,8-5.2l7-6.2c3.5-3.1,6.7-6.5,10-9.8
	c-1.6,2.7-3.4,5.3-5,8c-1.5,2.6-3.5,5.8-3.5,9c-0.1,5.6,6,5.3,9.5,3.1c10.9-6.7,19.3-17.8,30-25.1c-15.9,20-29.2,41.8-43.3,63
	c-7.6,11.4-18.3,25.3-20.7,39c5.7-1.9,8.8-6.4,12.4-11c6.7-8.4,12.8-17.2,19-26c14.7-20.8,28.5-41.9,45.3-61
	c10.2-11.6,22.5-24.5,37.3-30c-6.6,20.9-28,39.7-47,49c2.7,8.2,18.1,0.4,23-2.7c13.8-8.9,24.9-22.9,32.7-37.3c0.9-1.6,1.7-3.3,2.3-5
	c0.4-1.3,0.8-2.6,0.8-4c0.2-12.5-18.7-2.6-23.9,0.4c-5.4,3.2-10.4,7.3-15,11.5c3.1-5.6,5.9-10.7,7-17c-10.8,2.8-16.1,14.4-23.4,21.8
	c-6.5,6.5-16.6,11.8-24.6,16.2c6.6-11.8,19.6-23.5,22-37c-10.5,2.9-18.8,16.4-26.2,23.9c-8.3,8.5-19.8,14.2-28.8,22.1
	c4.3-10.3,11.5-18.8,18.8-27c3.2-3.6,9.6-8.8,9.8-14c0.2-7-8.2-4.5-11.6-2.3c-11.3,7.2-22.9,15.5-33,24.2
	c16.5-26.6,37.6-50.3,54.2-77c5.6-9.1,15.4-20.3,16.8-31c-10.9,5.1-19.3,19.7-26.6,29c-18.6,23.8-36.3,48.1-53.4,73
	c-6.1,8.9-12.2,17.8-18,27c-1.5,2.4-4.6,8,0.1,9.2c5.2,1.3,11.2-9.1,14-12.2C142.7,232.5,156.5,221.4,170.5,212.7 M174.5,156.7
	c-8.6,1.3-16.6,5.3-25,7.6c-16.8,4.5-33.8,8.1-51,10.4c-5.7,0.8-12.5,0.8-17.9,2.3c-2.1,0.6-3.9,2.2-3.3,4.6
	c0.7,2.7,3.9,3.4,6.2,3.8c6.7,1.1,14.2,0.5,21,0.3c11.4-0.3,22.7-2.5,34-3.8c6-0.7,14.6-1.1,19.8-4.2
	C164.7,173.9,170.8,163.1,174.5,156.7 M226.5,172.6c-8.1,3.1-7.4,14.8,2,11.1c2.6-1,5.4-3.2,6.1-6
	C235.7,173.1,230,171.3,226.5,172.6z"/>
</svg>
